<?xml version="1.0" encoding="UTF-8"?>
<svg width="55px" height="73px" viewBox="0 0 55 73" version="1.1" xmlns="http://www.w3.org/2000/svg" xmlns:xlink="http://www.w3.org/1999/xlink">
    <!-- Generator: Sketch 53.2 (72643) - https://sketchapp.com -->
    <title>dokumenter/ utklippstavlen</title>
    <desc>Created with Sketch.</desc>
    <g id="dokumenter/-utklippstavlen" stroke="none" stroke-width="1" fill="none" fill-rule="evenodd">
        <path d="M50.5816,6.6023 L3.5996,6.6023 C1.6606,6.6023 0.0916,8.1733 0.0916,10.1143 L0.0916,69.4213 C0.0916,69.7833 0.1466,70.1353 0.2486,70.4633 C0.4196,71.0143 0.7236,71.5053 1.1216,71.9043 C1.1986,71.9803 1.2826,72.0593 1.3716,72.1293 C1.8886,72.5593 2.5346,72.8393 3.2396,72.9133 C3.3596,72.9253 3.4796,72.9323 3.5996,72.9323 L50.5816,72.9323 C52.5206,72.9323 54.0916,71.3593 54.0916,69.4213 L54.0916,10.1143 C54.0916,8.1733 52.5206,6.6023 50.5816,6.6023" id="Fill-102" fill="#515658"></path>
        <path d="M4.4371,19.5662 L4.4371,65.1952 C4.4371,66.8252 5.7561,68.1412 7.3811,68.1412 L46.8001,68.1412 C48.4261,68.1412 49.7451,66.8252 49.7451,65.1952 L49.7451,12.8062 C49.7451,11.1792 48.4261,9.8612 46.8001,9.8612 L14.6851,9.8612 L4.4371,19.5662 Z" id="Fill-103" fill="#FFFFFF"></path>
        <path d="M14.6852,9.8616 L14.6852,16.6186 C14.6852,18.2466 13.3672,19.5666 11.7412,19.5666 L4.4372,19.5666 L14.6852,9.8616 Z" id="Fill-104" fill="#C0C0BE"></path>
        <path d="M27.0924,8.2512 C26.4644,8.2512 25.9564,7.7452 25.9564,7.1172 C25.9564,6.4892 26.4644,5.9802 27.0924,5.9802 C27.7174,5.9802 28.2274,6.4892 28.2274,7.1172 C28.2274,7.7452 27.7174,8.2512 27.0924,8.2512 M34.1054,3.6082 L29.8794,3.6082 L29.8794,2.8272 C29.8794,1.2872 28.6304,0.0392 27.0924,0.0392 C25.5494,0.0392 24.3034,1.2872 24.3034,2.8272 L24.3034,3.6082 L20.0774,3.6082 C17.9944,3.6082 16.3034,5.2992 16.3034,7.3832 L16.3034,11.9232 L37.8784,11.9232 L37.8784,7.3832 C37.8784,5.2992 36.1884,3.6082 34.1054,3.6082" id="Fill-105" fill="#2F3237"></path>
        <g id="⚙️/-dokumenter/-innhold/-oppgaver" transform="translate(2.000000, 16.000000)">
            <g id="Group" transform="translate(10.000000, 13.000000)">
                <polygon id="Fill-118" fill="#A59D96" points="7.3094 5.582 30.3814 5.582 30.3814 3.004 7.3094 3.004"></polygon>
                <polygon id="Fill-119" fill="#A59D96" points="7.3094 11.413 30.3814 11.413 30.3814 8.836 7.3094 8.836"></polygon>
                <polygon id="Fill-120" fill="#A59D96" points="7.3094 17.244 30.3814 17.244 30.3814 14.668 7.3094 14.668"></polygon>
                <polygon id="Fill-121" fill="#A59D96" points="7.3094 23.077 30.3814 23.077 30.3814 20.5 7.3094 20.5"></polygon>
                <path d="M4.725,2.0046 L3.725,2.0046 L1,2.0046 L0,2.0046 L0,3.0046 L0,5.5826 L0,6.5826 L1,6.5826 L3.725,6.5826 L4.725,6.5826 L4.725,5.5826 L4.725,3.0046 L4.725,2.0046 Z M1,5.5826 L3.725,5.5826 L3.725,3.0046 L1,3.0046 L1,5.5826 Z" id="Fill-122" fill="#A59D96"></path>
                <path d="M4.725,7.8361 L3.725,7.8361 L1,7.8361 L0,7.8361 L0,8.8361 L0,11.4131 L0,12.4131 L1,12.4131 L3.725,12.4131 L4.725,12.4131 L4.725,11.4131 L4.725,8.8361 L4.725,7.8361 Z M1,11.4131 L3.725,11.4131 L3.725,8.8361 L1,8.8361 L1,11.4131 Z" id="Fill-123" fill="#A59D96"></path>
                <path d="M4.725,13.6677 L3.725,13.6677 L1,13.6677 L0,13.6677 L0,14.6677 L0,17.2437 L0,18.2437 L1,18.2437 L3.725,18.2437 L4.725,18.2437 L4.725,17.2437 L4.725,14.6677 L4.725,13.6677 Z M1,17.2437 L3.725,17.2437 L3.725,14.6677 L1,14.6677 L1,17.2437 Z" id="Fill-124" fill="#A59D96"></path>
                <path d="M4.725,19.5002 L3.725,19.5002 L1,19.5002 L0,19.5002 L0,20.5002 L0,23.0772 L0,24.0772 L1,24.0772 L3.725,24.0772 L4.725,24.0772 L4.725,23.0772 L4.725,20.5002 L4.725,19.5002 Z M1,23.0772 L3.725,23.0772 L3.725,20.5002 L1,20.5002 L1,23.0772 Z" id="Fill-125" fill="#A59D96"></path>
                <polyline id="Stroke-126" stroke="#2F3237" stroke-width="2" points="0.0356 1.717 2.5856 4.632 6.1736 0"></polyline>
                <polyline id="Stroke-127" stroke="#2F3237" stroke-width="2" points="0.0356 7.6931 2.5856 10.6081 6.1736 5.9761"></polyline>
            </g>
        </g>
    </g>
</svg>