
<!-- Generator: Adobe Illustrator 16.0.0, SVG Export Plug-In . SVG Version:
6.00 Build 0) -->
<svg contentScriptType="text/ecmascript" zoomAndPan="magnify"
     xmlns:xlink="http://www.w3.org/1999/xlink" contentStyleType="text/css"
     id="Filled_Version" enable-background="new 0 0 24 24" version="1.1"
     xml:space="preserve" width="24px" preserveAspectRatio="xMidYMid meet"
     viewBox="0 0 24 24" height="24px" xmlns="http://www.w3.org/2000/svg"
     x="0px" y="0px">
    <path fill="#3e3832"
          d="M11.5,1C5.158,1,0,6.158,0,12.5S5.158,24,11.5,24C17.841,24,23,18.842,23,12.5S17.841,1,11.5,1z M11,6c0.551,0,1,0.448,1,1  c0,0.553-0.449,1-1,1c-0.553,0-1-0.447-1-1C10,6.448,10.447,6,11,6z M14.5,20h-6C8.224,20,8,19.776,8,19.5S8.224,19,8.5,19H11v-8  H9.5C9.224,11,9,10.776,9,10.5S9.224,10,9.5,10h2c0.275,0,0.5,0.224,0.5,0.5V19h2.5c0.275,0,0.5,0.224,0.5,0.5S14.775,20,14.5,20z"/></svg>